<svg width="219" height="137" viewBox="0 0 219 137" fill="none" xmlns="http://www.w3.org/2000/svg">
<g id="Group 97">
<g id="Group 96">
<path id="Vector" d="M218.214 94.3056C218.214 95.0413 218.199 95.8141 218.162 96.6166C218.155 96.7652 218.147 96.9213 218.14 97.0773C218.11 97.6867 218.066 98.3108 218.013 98.9499C217.999 99.0985 217.991 99.2397 217.976 99.3883C217.961 99.5667 217.947 99.745 217.924 99.9233C217.85 100.681 217.761 101.454 217.664 102.234C217.642 102.39 217.62 102.554 217.597 102.71C217.493 103.468 217.382 104.241 217.248 105.021C217.218 105.177 217.196 105.34 217.166 105.504C217.033 106.269 216.891 107.042 216.735 107.815C216.706 107.978 216.669 108.142 216.631 108.305C216.505 108.915 216.364 109.524 216.223 110.141C216.148 110.46 216.067 110.78 215.985 111.099C215.792 111.872 215.584 112.645 215.361 113.41C215.316 113.574 215.264 113.73 215.22 113.886C214.989 114.666 214.744 115.439 214.476 116.197C214.424 116.36 214.365 116.516 214.306 116.68C214.075 117.326 213.837 117.965 213.585 118.59C213.451 118.931 213.31 119.273 213.161 119.608C212.819 120.403 212.463 121.176 212.084 121.919C212.002 122.082 211.92 122.238 211.838 122.402C211.407 123.212 210.962 123.984 210.486 124.713C210.389 124.869 210.285 125.017 210.181 125.166C209.609 126.006 209 126.778 208.361 127.469C208.153 127.692 207.945 127.908 207.729 128.116C206.704 129.112 205.597 129.892 204.4 130.419C204.311 130.457 204.229 130.494 204.14 130.531C204.118 130.538 204.096 130.546 204.073 130.561C203.902 130.628 203.724 130.694 203.553 130.746L194.309 130.761L168.167 130.798L135.724 130.605L123.04 130.531L97.9461 130.382L22.1441 129.929C22.1441 129.929 8.08496 121.607 8.08496 107.161C8.08496 106.96 8.08496 106.76 8.09239 106.559C8.30046 98.8384 10.3662 84.1254 28.1556 76.4865C29.4338 75.9366 30.7936 75.4239 32.2352 74.9557C33.5281 74.5322 34.888 74.1458 36.3221 73.7965C38.1427 73.3507 40.0821 72.9643 42.1479 72.6522C42.3485 72.6224 42.5566 72.5927 42.7572 72.563C43.7455 72.4218 44.6893 72.2509 45.5958 72.0503C69.5231 66.9081 66.6474 44.6974 98.2061 43.1443C101.097 43.0031 104.277 43.0329 107.792 43.2632C113.187 43.6199 117.638 44.9352 121.606 46.4882C125.812 48.123 129.483 50.0104 133.198 51.2959L133.451 51.3851C137.092 52.6186 140.785 53.2503 145.05 52.47C145.258 52.4329 145.466 52.3883 145.674 52.3437C150.4 51.3405 154.822 50.5975 158.946 50.0996C159.035 50.0922 159.117 50.0773 159.198 50.0699C169.111 48.8958 177.337 49.1187 184.173 50.434C184.263 50.4488 184.344 50.4637 184.426 50.486C187.376 51.0656 190.074 51.8458 192.526 52.8118C193.209 53.0794 193.878 53.3617 194.525 53.659C194.547 53.6664 194.562 53.6738 194.584 53.6887C194.696 53.7407 194.8 53.7853 194.911 53.8373C195.015 53.8819 195.119 53.9339 195.223 53.9859C195.231 53.9933 195.245 53.9933 195.253 54.0008C196.055 54.3872 196.828 54.7884 197.571 55.212C198.456 55.7173 199.303 56.2449 200.113 56.8022C200.343 56.9582 200.573 57.1217 200.796 57.2852C201.814 58.0209 202.773 58.7937 203.679 59.6111C203.858 59.7745 204.036 59.9306 204.207 60.0941C205.002 60.8371 205.753 61.6099 206.459 62.4125C206.644 62.6205 206.815 62.8212 206.994 63.0292C207.625 63.7798 208.227 64.5526 208.799 65.3477C208.918 65.5111 209.03 65.6672 209.141 65.8307C209.669 66.5886 210.159 67.3614 210.627 68.1491C210.731 68.32 210.828 68.4909 210.932 68.6618C211.355 69.4049 211.764 70.1554 212.143 70.9208C212.284 71.2032 212.426 71.493 212.559 71.7828C212.797 72.2806 213.027 72.7859 213.243 73.2987C213.429 73.7222 213.607 74.1532 213.778 74.5842C214.083 75.3496 214.372 76.1224 214.647 76.9026C214.707 77.0661 214.759 77.2221 214.811 77.3856C214.997 77.9281 215.175 78.4705 215.338 79.013C215.413 79.2433 215.48 79.4737 215.546 79.704C215.591 79.8675 215.643 80.031 215.688 80.1945C215.725 80.3357 215.769 80.4768 215.807 80.618C215.97 81.1828 216.119 81.7549 216.267 82.3271C216.282 82.3866 216.297 82.4534 216.312 82.5129C216.349 82.6764 216.394 82.8324 216.431 82.9959C216.624 83.7687 216.802 84.5341 216.973 85.3143C217.01 85.4704 217.04 85.6338 217.077 85.7899C217.241 86.5627 217.397 87.3355 217.538 88.1083C217.568 88.2718 217.597 88.4278 217.627 88.5913C217.716 89.0669 217.798 89.5425 217.88 90.018C217.909 90.2112 217.947 90.4193 217.969 90.6348C217.976 90.724 217.991 90.8131 217.999 90.9097C218.021 91.1104 218.043 91.3184 218.058 91.5265C218.118 92.2324 218.155 93.0052 218.162 93.8375C218.214 93.9861 218.214 94.1496 218.214 94.3056Z" fill="#EBF3FA"/>
<g id="Group">
<path id="Vector_2" d="M218.006 90.6199V98.9573C217.991 99.1059 217.984 99.2471 217.969 99.3958C217.954 99.5741 217.939 99.7524 217.917 99.9308C217.843 100.689 217.753 101.462 217.657 102.242C217.635 102.398 217.612 102.561 217.59 102.717C217.486 103.475 217.374 104.248 217.241 105.028C217.211 105.184 217.189 105.348 217.159 105.511C217.025 106.277 216.884 107.05 216.728 107.822C216.698 107.986 216.661 108.149 216.624 108.313C216.498 108.922 216.356 109.531 216.215 110.148C216.141 110.468 216.059 110.787 215.977 111.107C215.784 111.88 215.576 112.652 215.353 113.418C215.309 113.581 215.257 113.737 215.212 113.893C214.982 114.674 214.737 115.446 214.469 116.204C214.417 116.368 214.358 116.524 214.298 116.687C214.068 117.334 213.83 117.973 213.577 118.597C213.444 118.939 213.302 119.281 213.154 119.615C212.812 120.41 212.455 121.183 212.076 121.926C211.995 122.09 211.913 122.246 211.831 122.409C211.4 123.219 210.954 123.992 210.479 124.72C210.382 124.876 210.278 125.025 210.174 125.173C209.602 126.013 208.992 126.786 208.353 127.477C208.145 127.7 207.937 127.915 207.722 128.123C206.696 129.119 205.589 129.899 204.393 130.427C204.304 130.464 204.222 130.501 204.133 130.538C204.11 130.546 204.088 130.553 204.066 130.568L135.71 130.613L123.025 130.538L97.9312 130.39L22.1441 129.929C22.1441 129.929 8.08496 121.607 8.08496 107.161C8.08496 106.96 8.08496 106.76 8.09239 106.559C8.30046 98.8384 10.3662 84.1254 28.1556 76.4865V83.4343H32.2352V74.9632C33.5281 74.5396 34.888 74.1532 36.3221 73.804C38.1427 73.3581 40.0821 72.9717 42.1479 72.6596C42.3485 72.6299 42.5566 72.6002 42.7572 72.5704C43.7455 72.4293 44.6893 72.2583 45.5958 72.0577V82.3791H50.1063V79.9641L55.4268 79.9864V76.0778H56.4969V75.305H56.6381V76.0778H60.7473H61.5721V75.305H61.7133V76.0778H62.7016V83.8504H69.0401V86.7113H72.5623V85.0542H75.8319V78.4631H77.4593V75.3867H77.7045V78.4631H81.6057V72.6968H81.9921V78.4631H84.578V78.3814H84.5706V77.6531H84.578V76.9621H84.5706V75.8103H84.578V75.0746H84.5706V73.9229H84.578V73.1872H84.5706V72.0354H84.578V71.2329H84.5706V70.0811H84.578V69.0705H84.5706V67.9187H84.578V67.1534H85.3434V66.2914H85.4697V67.1534H91.1691V66.2914H91.2955V67.1534H92.3358V73.1798L93.0714 73.1872V73.1798H93.064V72.028H93.0714V71.2329H93.064V70.0811H93.0714V69.286H93.064V68.1342H93.0714H99.9821H101.171C101.23 68.164 101.297 68.1937 101.357 68.2234V74.7997H106.41V83.4417H110.489V67.4655H111.381V66.3508H111.537V67.4655H114.762V66.3508H114.926V67.4655H119.488V66.3508H119.652V67.4655H122.527V66.3508H122.683V67.4655H123.865V82.3791H128.375V79.9641L133.696 79.9864V76.0778H134.766V75.305H134.907V76.0778H139.016H139.834V75.305H139.975V76.0778H140.963V83.8504H147.302V86.7113H150.824V85.0542H154.093V78.4631H155.721V75.3867H155.966V78.4631H159.867V72.6968H160.254V78.4631H162.84V78.3814H162.832V77.6531H162.84V76.9621H162.832V75.8103H162.84V75.0746H162.832V73.9229H162.84V73.1872H162.832V72.0354H162.84V71.2329H162.832V70.0811H162.84V69.0705H162.832V67.9187H162.84V67.1534H163.612V66.2914H163.739V67.1534H169.438V66.2914H169.564V67.1534H170.605V73.1798L171.326 73.1872H171.333V73.1798H171.326V72.028H171.333V71.2329H171.326V70.0811H171.333V69.286H171.326V68.1342H171.333H178.244H179.433C179.492 68.164 179.559 68.1937 179.618 68.2234V74.7997H188.097V83.4417H192.176V67.4655H193.061V66.3508H193.224V67.4655H196.449V66.3508H196.605V67.4655H201.168V66.3508H201.324V67.4655H205.537V82.3791H210.048V79.9641L215.368 79.9864V79.0055C215.442 79.2359 215.509 79.4663 215.576 79.6966C215.621 79.8601 215.673 80.0236 215.717 80.187C215.755 80.3282 215.799 80.4694 215.836 80.6106C216 81.1753 216.148 81.7475 216.297 82.3197C216.312 82.3791 216.327 82.446 216.342 82.5055C216.379 82.6689 216.423 82.825 216.46 82.9885C216.654 83.7613 216.832 84.5267 217.003 85.3069C217.04 85.4629 217.07 85.6264 217.107 85.7825C217.27 86.5553 217.426 87.3281 217.568 88.1009C217.597 88.2644 217.627 88.4204 217.657 88.5839C217.746 89.0595 217.828 89.535 217.909 90.0106C217.954 90.1964 217.984 90.4044 218.006 90.6199Z" fill="#D5E5FB"/>
<g id="Group_2">
<path id="Vector_3" d="M123.857 67.4729H113.655V69.9994H123.857V67.4729Z" fill="#E2EEFD"/>
<path id="Vector_4" d="M123.857 71.3591H113.655V73.8856H123.857V71.3591Z" fill="#E2EEFD"/>
<path id="Vector_5" d="M123.857 75.3347H113.655V77.8612H123.857V75.3347Z" fill="#E2EEFD"/>
<path id="Vector_6" d="M123.857 79.3696H113.655V81.8961H123.857V79.3696Z" fill="#E2EEFD"/>
<path id="Vector_7" d="M123.857 83.2634H113.655V85.7899H123.857V83.2634Z" fill="#E2EEFD"/>
<g id="Group_3">
<path id="Vector_8" d="M167.595 67.1533H162.839V68.6915H167.595V67.1533Z" fill="#E2EEFD"/>
<path id="Vector_9" d="M167.595 69.5164H162.839V71.0545H167.595V69.5164Z" fill="#E2EEFD"/>
<path id="Vector_10" d="M167.595 71.9314H162.839V73.4696H167.595V71.9314Z" fill="#E2EEFD"/>
<path id="Vector_11" d="M167.595 74.3835H162.839V75.9217H167.595V74.3835Z" fill="#E2EEFD"/>
<path id="Vector_12" d="M167.595 76.7466H162.839V78.2848H167.595V76.7466Z" fill="#E2EEFD"/>
</g>
<g id="Group_4">
<path id="Vector_13" d="M167.595 79.3473H162.839V80.8855H167.595V79.3473Z" fill="#E2EEFD"/>
<path id="Vector_14" d="M167.595 81.7103H162.839V83.2485H167.595V81.7103Z" fill="#E2EEFD"/>
<path id="Vector_15" d="M167.595 84.1252H162.839V85.6634H167.595V84.1252Z" fill="#E2EEFD"/>
<path id="Vector_16" d="M167.595 86.5701H162.839V88.1082H167.595V86.5701Z" fill="#E2EEFD"/>
<path id="Vector_17" d="M167.595 88.9404H162.839V90.4786H167.595V88.9404Z" fill="#E2EEFD"/>
</g>
<g id="Group_5">
<path id="Vector_18" d="M176.4 68.1639H171.303V69.7021H176.4V68.1639Z" fill="#E2EEFD"/>
<path id="Vector_19" d="M176.4 70.527H171.303V72.0652H176.4V70.527Z" fill="#E2EEFD"/>
<path id="Vector_20" d="M176.4 72.9346H171.303V74.4728H176.4V72.9346Z" fill="#E2EEFD"/>
<path id="Vector_21" d="M176.4 75.3867H171.303V76.9249H176.4V75.3867Z" fill="#E2EEFD"/>
<path id="Vector_22" d="M176.4 77.7498H171.303V79.2879H176.4V77.7498Z" fill="#E2EEFD"/>
</g>
<g id="Group_6">
<path id="Vector_23" d="M176.4 80.2168H171.303V81.755H176.4V80.2168Z" fill="#E2EEFD"/>
<path id="Vector_24" d="M176.4 82.5798H171.303V84.118H176.4V82.5798Z" fill="#E2EEFD"/>
<path id="Vector_25" d="M176.4 84.9949H171.303V86.5331H176.4V84.9949Z" fill="#E2EEFD"/>
<path id="Vector_26" d="M176.4 87.4396H171.303V88.9778H176.4V87.4396Z" fill="#E2EEFD"/>
<path id="Vector_27" d="M176.4 89.8101H171.303V91.3482H176.4V89.8101Z" fill="#E2EEFD"/>
</g>
<g id="Group_7">
<path id="Vector_28" d="M176.4 92.5222H171.303V94.0604H176.4V92.5222Z" fill="#E2EEFD"/>
<path id="Vector_29" d="M176.4 94.8853H171.303V96.4234H176.4V94.8853Z" fill="#E2EEFD"/>
<path id="Vector_30" d="M176.4 97.2928H171.303V98.831H176.4V97.2928Z" fill="#E2EEFD"/>
<path id="Vector_31" d="M176.4 99.745H171.303V101.283H176.4V99.745Z" fill="#E2EEFD"/>
<path id="Vector_32" d="M176.4 102.108H171.303V103.646H176.4V102.108Z" fill="#E2EEFD"/>
</g>
<path id="Vector_33" d="M205.537 67.4729H196.248V69.9994H205.537V67.4729Z" fill="#E2EEFD"/>
<path id="Vector_34" d="M205.537 71.3591H196.248V73.8856H205.537V71.3591Z" fill="#E2EEFD"/>
<path id="Vector_35" d="M205.537 75.3347H196.248V77.8612H205.537V75.3347Z" fill="#E2EEFD"/>
<path id="Vector_36" d="M205.537 79.3696H196.248V81.8961H205.537V79.3696Z" fill="#E2EEFD"/>
<path id="Vector_37" d="M205.537 83.2634H196.248V85.7899H205.537V83.2634Z" fill="#E2EEFD"/>
<g id="Group_8">
<path id="Vector_38" d="M89.6229 67.1533H84.5254V68.6915H89.6229V67.1533Z" fill="#E2EEFD"/>
<path id="Vector_39" d="M89.6229 69.5164H84.5254V71.0545H89.6229V69.5164Z" fill="#E2EEFD"/>
<path id="Vector_40" d="M89.6229 71.9314H84.5254V73.4696H89.6229V71.9314Z" fill="#E2EEFD"/>
<path id="Vector_41" d="M89.6229 74.3835H84.5254V75.9217H89.6229V74.3835Z" fill="#E2EEFD"/>
<path id="Vector_42" d="M89.6229 76.7466H84.5254V78.2848H89.6229V76.7466Z" fill="#E2EEFD"/>
</g>
<g id="Group_9">
<path id="Vector_43" d="M89.6237 79.3473H84.5261V80.8855H89.6237V79.3473Z" fill="#E2EEFD"/>
<path id="Vector_44" d="M89.6229 81.7103H84.5254V83.2485H89.6229V81.7103Z" fill="#E2EEFD"/>
<path id="Vector_45" d="M89.6229 84.1252H84.5254V85.6634H89.6229V84.1252Z" fill="#E2EEFD"/>
<path id="Vector_46" d="M89.6229 86.5701H84.5254V88.1082H89.6229V86.5701Z" fill="#E2EEFD"/>
<path id="Vector_47" d="M89.6229 88.9404H84.5254V90.4786H89.6229V88.9404Z" fill="#E2EEFD"/>
</g>
<g id="Group_10">
<path id="Vector_48" d="M98.9565 68.1639H93.1604V69.7021H98.9565V68.1639Z" fill="#E2EEFD"/>
<path id="Vector_49" d="M98.9558 70.527H93.1598V72.0652H98.9558V70.527Z" fill="#E2EEFD"/>
<path id="Vector_50" d="M98.9558 72.9346H93.1598V74.4728H98.9558V72.9346Z" fill="#E2EEFD"/>
<path id="Vector_51" d="M98.9558 75.3867H93.1598V76.9249H98.9558V75.3867Z" fill="#E2EEFD"/>
<path id="Vector_52" d="M98.9558 77.7498H93.1598V79.2879H98.9558V77.7498Z" fill="#E2EEFD"/>
</g>
<g id="Group_11">
<path id="Vector_53" d="M98.9565 80.2168H93.1604V81.755H98.9565V80.2168Z" fill="#E2EEFD"/>
<path id="Vector_54" d="M98.9558 82.5798H93.1598V84.118H98.9558V82.5798Z" fill="#E2EEFD"/>
<path id="Vector_55" d="M98.9558 84.9949H93.1598V86.5331H98.9558V84.9949Z" fill="#E2EEFD"/>
<path id="Vector_56" d="M98.9558 87.4396H93.1598V88.9778H98.9558V87.4396Z" fill="#E2EEFD"/>
<path id="Vector_57" d="M98.9558 89.8101H93.1598V91.3482H98.9558V89.8101Z" fill="#E2EEFD"/>
</g>
<g id="Group_12">
<path id="Vector_58" d="M98.9565 92.5222H93.1604V94.0604H98.9565V92.5222Z" fill="#E2EEFD"/>
<path id="Vector_59" d="M98.9558 94.8853H93.1598V96.4234H98.9558V94.8853Z" fill="#E2EEFD"/>
<path id="Vector_60" d="M98.9558 97.2928H93.1598V98.831H98.9558V97.2928Z" fill="#E2EEFD"/>
<path id="Vector_61" d="M98.9558 99.745H93.1598V101.283H98.9558V99.745Z" fill="#E2EEFD"/>
<path id="Vector_62" d="M98.9558 102.108H93.1598V103.646H98.9558V102.108Z" fill="#E2EEFD"/>
</g>
</g>
</g>
<path id="Vector_63" d="M86.8809 58.5485C86.8809 58.5485 88.5602 55.7768 92.5654 56.0889C92.5654 56.0889 98.3838 51.4744 104.596 55.4722C104.596 55.4722 111.195 54.4839 116.084 56.3267C119.346 57.5602 120.416 58.8532 120.416 58.8532L86.8809 58.5485Z" fill="#F8FCFF"/>
<path id="Vector_64" d="M122.758 66.3434C122.758 66.3434 123.843 64.4634 126.443 64.6714C126.443 64.6714 130.218 61.5356 134.238 64.2553C134.238 64.2553 138.511 63.5791 141.684 64.8423C143.794 65.682 144.493 66.5589 144.493 66.5589L122.758 66.3434Z" fill="#F8FCFF"/>
<path id="Vector_65" d="M153.425 58.0282C153.425 58.0282 154.413 56.1928 156.783 56.4009C156.783 56.4009 160.216 53.3468 163.88 55.9922C163.88 55.9922 167.774 55.3383 170.657 56.5569C172.581 57.3743 173.213 58.2289 173.213 58.2289L153.425 58.0282Z" fill="#F8FCFF"/>
<path id="Vector_66" d="M218.66 130.843V130.954C218.66 131.103 218.541 131.222 218.407 131.222L53.6283 130.672L3.0838 130.501L0.252648 130.494C0.111463 130.494 0 130.375 0 130.226V130.115C0 129.966 0.118893 129.847 0.252648 129.847L3.0838 129.855L206.8 130.538L218.407 130.576C218.548 130.576 218.66 130.702 218.66 130.843Z" fill="#2E3552"/>
</g>
<g id="Group_13">
<path id="Vector_67" d="M161.977 11.0432H159.406V127.822H161.977V11.0432Z" fill="#AEC3FF"/>
<path id="Vector_68" d="M164.32 129.734C164.32 129.734 163.357 130.582 160.685 130.582C158.165 130.582 157.05 129.734 157.05 129.734V102.29C157.05 100.391 158.583 98.8582 160.482 98.8582H160.723C162.711 98.8582 164.332 100.467 164.332 102.468V129.734H164.32Z" fill="#9DB0F4"/>
<path id="Vector_69" d="M165.093 36.2201H156.266C155.291 36.2201 154.505 35.435 154.505 34.4598V1.76035C154.505 0.785191 155.291 0 156.266 0H165.093C166.068 0 166.853 0.785191 166.853 1.76035V34.4598C166.866 35.435 166.068 36.2201 165.093 36.2201Z" fill="#AEC3FF"/>
<path id="Vector_70" d="M161.858 22.3863C164.4 21.77 165.961 19.2096 165.345 16.6675C164.728 14.1253 162.168 12.5642 159.626 13.1805C157.084 13.7968 155.523 16.3572 156.139 18.8993C156.755 21.4414 159.316 23.0026 161.858 22.3863Z" fill="#9DB0F4"/>
<path id="Vector_71" d="M165.422 29.336C165.874 26.7594 164.151 24.3044 161.575 23.8526C158.998 23.4008 156.543 25.1234 156.091 27.7C155.639 30.2767 157.362 32.7317 159.939 33.1835C162.515 33.6352 164.97 31.9127 165.422 29.336Z" fill="#9DB0F4"/>
<path id="Vector_72" d="M165.415 7.70351C165.841 5.12242 164.093 2.68543 161.512 2.26035C158.931 1.83527 156.494 3.58306 156.069 6.16416C155.643 8.74525 157.391 11.1822 159.972 11.6073C162.553 12.0324 164.99 10.2846 165.415 7.70351Z" fill="#F99746"/>
</g>
<g id="Group_14">
<path id="Vector_73" d="M48.4419 121.958H155.063L191.068 118.716C191.068 118.716 184.622 102.658 182.874 102.417C181.114 102.176 51.8233 102.417 51.8233 102.417L48.4419 121.958Z" fill="#1D2949"/>
<path id="Vector_74" d="M206.455 120.375C203.796 121.464 187.763 121.705 187.763 121.705C187.763 121.705 188.13 102.05 171.603 104.342C155.076 106.634 157.976 122.946 157.976 122.946L78.5451 124.364C78.5451 124.364 79.8369 103.645 62.2967 105.824C47.7327 107.635 51.4687 124.288 51.4687 124.288C43.946 124.681 39.9188 123.541 37.7785 122.363C36.1828 120.109 37.1073 118.792 37.2086 118.551C37.2972 118.323 36.9806 114.473 36.93 113.929C36.9046 113.612 37.5758 112.814 38.1837 112.181C38.6776 111.662 38.703 110.851 38.2597 110.294L37.4619 109.319C36.55 108.205 36.3474 106.672 36.93 105.355L38.513 101.746C43.6547 92.9059 84.0162 90.487 84.0162 90.487C90.1457 86.9663 95.2241 84.3448 99.2008 82.4451C105.546 79.4057 112.777 76.4549 119.768 75.7584C138.714 73.884 154.291 76.0116 158.103 76.6322C162.561 77.3541 185.002 87.1183 186.686 87.9668C188.371 88.8153 202.15 89.9551 203.91 90.1704C205.683 90.3857 205.632 92.1587 205.632 92.1587L205.873 93.7291L206.797 99.7067L207.025 101.163C208.317 101.809 208.317 103.645 208.317 103.645C208.317 103.645 209.102 119.286 206.455 120.375Z" fill="#662D91"/>
<g id="Group_15">
<path id="Vector_75" d="M73.2899 127.369C78.0675 122.592 78.0675 114.846 73.2899 110.068C68.5124 105.291 60.7664 105.291 55.9889 110.068C51.2113 114.846 51.2114 122.592 55.9889 127.369C60.7665 132.147 68.5124 132.147 73.2899 127.369Z" fill="#2C3A64"/>
<g id="Group_16">
<path id="Vector_76" d="M64.6394 128.278C59.371 128.278 55.0778 123.984 55.0778 118.716C55.0778 113.448 59.371 109.154 64.6394 109.154C69.9078 109.154 74.201 113.448 74.201 118.716C74.201 123.984 69.9204 128.278 64.6394 128.278ZM64.6394 110.028C59.8522 110.028 55.9643 113.916 55.9643 118.703C55.9643 123.491 59.8649 127.378 64.6394 127.378C69.4265 127.378 73.3145 123.491 73.3145 118.703C73.3145 113.916 69.4265 110.028 64.6394 110.028Z" fill="#AFCDFB"/>
</g>
<g id="Group_17">
<g id="Group_18">
<path id="Vector_77" d="M66.2736 127.847H62.8542L63.9434 118.45L62.6896 109.534L66.6029 109.775L65.2984 118.45L66.2736 127.847Z" fill="#AFCDFB"/>
</g>
<g id="Group_19">
<path id="Vector_78" d="M57.5355 124.681L55.8131 121.705L64.5009 117.969L71.6056 112.422L73.3533 115.93L65.1848 119.134L57.5355 124.681Z" fill="#AFCDFB"/>
</g>
<g id="Group_20">
<path id="Vector_79" d="M56.155 115.17L58.042 112.308L65.286 118.387L73.4293 122.237L71.0737 125.377L64.5388 119.526L56.155 115.17Z" fill="#AFCDFB"/>
</g>
<path id="Vector_80" d="M61.4362 118.703C61.4362 116.943 62.8672 115.512 64.6276 115.512C66.3879 115.512 67.819 116.943 67.819 118.703C67.819 120.464 66.3879 121.895 64.6276 121.895C62.8672 121.895 61.4362 120.464 61.4362 118.703Z" fill="#AFCDFB"/>
</g>
</g>
<g id="Group_21">
<path id="Vector_81" d="M185.014 121.549C186.567 114.974 182.495 108.385 175.919 106.832C169.344 105.279 162.755 109.351 161.202 115.927C159.65 122.502 163.721 129.091 170.297 130.644C176.872 132.197 183.461 128.125 185.014 121.549Z" fill="#2C3A64"/>
<g id="Group_22">
<path id="Vector_82" d="M173.098 128.278C167.829 128.278 163.536 123.984 163.536 118.716C163.536 113.448 167.829 109.154 173.098 109.154C178.366 109.154 182.659 113.448 182.659 118.716C182.659 123.984 178.366 128.278 173.098 128.278ZM173.098 110.028C168.311 110.028 164.423 113.916 164.423 118.703C164.423 123.491 168.323 127.378 173.098 127.378C177.872 127.378 181.773 123.491 181.773 118.703C181.773 113.916 177.885 110.028 173.098 110.028Z" fill="#AFCDFB"/>
</g>
<g id="Group_23">
<g id="Group_24">
<path id="Vector_83" d="M174.732 127.847H171.3L172.401 118.45L171.148 109.534L175.061 109.775L173.757 118.45L174.732 127.847Z" fill="#AFCDFB"/>
</g>
<g id="Group_25">
<path id="Vector_84" d="M165.979 124.681L164.27 121.705L172.958 117.969L180.05 112.422L181.797 115.93L173.629 119.134L165.979 124.681Z" fill="#AFCDFB"/>
</g>
<g id="Group_26">
<path id="Vector_85" d="M164.612 115.17L166.499 112.308L173.743 118.387L181.886 122.237L179.53 125.377L172.996 119.526L164.612 115.17Z" fill="#AFCDFB"/>
</g>
<path id="Vector_86" d="M169.88 118.703C169.88 116.943 171.311 115.512 173.071 115.512C174.831 115.512 176.263 116.943 176.263 118.703C176.263 120.464 174.831 121.895 173.071 121.895C171.311 121.895 169.88 120.464 169.88 118.703Z" fill="#AFCDFB"/>
</g>
</g>
<path id="Vector_87" d="M52.824 102.847L49.6832 106.254C49.2273 106.748 48.5941 107.027 47.9355 107.027H38.3106C37.7407 107.027 37.3861 106.419 37.6647 105.925L37.9433 105.431C38.2853 104.823 38.7032 104.279 39.1844 103.797C40.5269 102.468 42.3759 101.695 44.3135 101.695H52.3174C52.9253 101.682 53.2419 102.404 52.824 102.847Z" fill="#AFCDFB"/>
<path id="Vector_88" d="M42.6035 118.716H39.868C38.9688 118.716 38.133 119.21 37.6897 119.995L37.6011 120.16C37.5124 120.324 37.6264 120.54 37.829 120.54H41.1218C41.3497 120.54 41.565 120.451 41.717 120.274L42.7935 119.109C42.9201 118.957 42.8062 118.716 42.6035 118.716Z" fill="#1D2949"/>
<path id="Vector_89" d="M174.857 89.3093L134.027 90.2845C133.229 90.3098 132.571 89.6639 132.571 88.8661V79.4564C132.571 78.7219 133.179 78.114 133.913 78.1267C151.327 78.3673 157.292 78.8485 160.863 80.0896C164.017 81.1788 171.4 85.662 175.212 87.9289C175.858 88.2962 175.604 89.284 174.857 89.3093Z" fill="#AFCDFB"/>
<path id="Vector_90" d="M129.013 78.0506C129.671 78.0633 130.317 78.0633 130.963 78.0759V90.3477L91.5767 91.2849C91.0575 91.2975 90.8548 90.6263 91.2728 90.3477C95.8699 87.2449 111.283 77.848 129.013 78.0506Z" fill="#AFCDFB"/>
<path id="Vector_91" d="M174.718 89.3093H174.692V87.5996C174.832 87.6883 174.971 87.7642 175.098 87.8402C175.782 88.2455 175.503 89.284 174.718 89.3093Z" fill="#AFCDFB"/>
<path id="Vector_92" d="M132.558 90.8417L127.745 90.4617L128.062 77.3414H132.558V90.8417Z" fill="#662D91"/>
<path id="Vector_93" d="M163.118 90.8416H160.863V79.0637L163.118 80.4062V90.8416Z" fill="#662D91"/>
<path id="Vector_94" d="M96.4776 87.1564L97.6807 91.133L91.1079 91.285C90.7279 91.2976 90.5633 90.8037 90.8672 90.5758C92.3616 89.5246 95.1098 87.625 96.4776 87.1564Z" fill="#2C3A64"/>
<g id="Group_27">
<path id="Vector_95" d="M90.8293 91.6269C90.5634 91.6269 90.3228 91.4622 90.2468 91.1963C90.1581 90.9303 90.2594 90.6517 90.4747 90.4997L90.614 90.4111C90.7534 90.3098 90.918 90.2084 91.0953 90.0818C91.2346 89.9805 91.3992 89.8792 91.5639 89.7779L91.8172 89.6132C92.0071 89.4866 92.2098 89.3599 92.4124 89.2206C92.5644 89.1193 92.7163 89.0307 92.881 88.9293L92.9063 88.9167C92.9316 88.904 92.957 88.8913 92.9823 88.8787C93.1216 88.79 93.2609 88.7014 93.4129 88.6127L93.4509 88.5874C93.5015 88.5621 93.5522 88.5241 93.6029 88.4987C93.6788 88.4481 93.7548 88.4101 93.8308 88.3594C93.9448 88.2961 94.0461 88.2328 94.1601 88.1568C94.4767 87.9668 94.8186 87.7642 95.1732 87.5616C95.2872 87.4983 95.3885 87.4349 95.5025 87.3716C95.7305 87.245 95.9584 87.1183 96.1864 86.979L96.351 86.8904C96.8196 86.6244 97.3009 86.3711 97.7821 86.1178L97.9341 86.0419C98.0101 86.0039 98.0734 85.9659 98.1494 85.9279C99.0485 85.4593 99.9857 84.9907 100.91 84.5475L101.201 84.4082C101.493 84.2688 101.784 84.1295 102.088 84.0029C102.189 83.9522 102.291 83.9142 102.392 83.8636C102.595 83.7749 102.797 83.6863 103 83.5976L103.304 83.4583C103.608 83.319 103.937 83.1797 104.304 83.0277C104.494 82.9517 104.684 82.8758 104.874 82.7871C106.166 82.2552 107.47 81.7613 108.775 81.3054L109.053 81.2041C109.155 81.1661 109.269 81.1281 109.37 81.0901L109.775 80.9508C109.889 80.9128 109.991 80.8748 110.105 80.8368H110.117C110.231 80.7988 110.345 80.7608 110.459 80.7228C110.674 80.6595 110.877 80.5835 111.092 80.5202C111.232 80.4695 111.384 80.4315 111.523 80.3809C111.751 80.3176 111.966 80.2416 112.194 80.1782L112.574 80.0769C112.815 80.0136 113.043 79.9376 113.283 79.8743C113.752 79.7477 114.233 79.621 114.702 79.507L114.727 79.4944C114.765 79.4817 114.816 79.469 114.854 79.469C115.056 79.4184 115.259 79.3677 115.474 79.3171C115.601 79.2917 115.715 79.2537 115.842 79.2284L115.93 79.2031C116.019 79.1778 116.12 79.1651 116.209 79.1398C116.335 79.1144 116.462 79.0891 116.576 79.0511C116.703 79.0258 116.829 79.0005 116.956 78.9751C117.083 78.9498 117.209 78.9245 117.336 78.8991C117.463 78.8738 117.589 78.8485 117.716 78.8232H117.741C117.855 78.7978 117.982 78.7725 118.096 78.7472C118.21 78.7218 118.336 78.6965 118.45 78.6838C118.59 78.6585 118.716 78.6332 118.856 78.6079C118.944 78.5952 119.033 78.5825 119.122 78.5572L119.248 78.5319C119.502 78.4939 119.767 78.4432 120.021 78.4052C120.147 78.3799 120.274 78.3672 120.413 78.3419H120.439C120.667 78.3039 120.895 78.2786 121.123 78.2406C121.553 78.1773 121.971 78.1266 122.389 78.076H122.414C122.528 78.0633 122.655 78.0506 122.769 78.038C122.845 78.0253 122.934 78.0253 123.022 78.0126C123.111 78 123.2 77.9873 123.288 77.9873C123.389 77.9746 123.491 77.962 123.579 77.962C123.706 77.9493 123.845 77.9366 123.985 77.924C124.111 77.9113 124.238 77.8987 124.365 77.8987C124.466 77.886 124.567 77.886 124.669 77.8733L125.238 77.8353C125.352 77.8227 125.466 77.8227 125.58 77.81H125.631C125.758 77.7973 125.884 77.7973 126.011 77.7847C126.112 77.7847 126.214 77.772 126.315 77.772H126.328C126.416 77.772 126.505 77.7593 126.594 77.7593L126.822 77.7467C126.91 77.7467 126.999 77.7467 127.087 77.734C127.442 77.7214 127.771 77.848 128.012 78.1013C128.265 78.3419 128.405 78.6712 128.405 79.0131V89.1826C128.405 90.0311 127.721 90.7277 126.872 90.753L90.8673 91.6015C90.842 91.6269 90.8293 91.6269 90.8293 91.6269ZM96.769 87.359L96.541 87.4856C96.2877 87.6249 96.0344 87.7769 95.7811 87.9162C95.6671 87.9795 95.5532 88.0428 95.4518 88.1062C95.0972 88.3088 94.768 88.5114 94.4514 88.7014C94.3374 88.7647 94.2361 88.828 94.1221 88.904C94.0461 88.9547 93.9701 88.9927 93.8941 89.0433C93.8435 89.0686 93.7928 89.1066 93.7548 89.132L93.7168 89.1573C93.5649 89.2459 93.4256 89.3346 93.2862 89.4232L93.1976 89.4739C93.0329 89.5752 92.881 89.6765 92.729 89.7652C92.5137 89.9045 92.3237 90.0311 92.1338 90.1451L91.8805 90.3098C91.7158 90.4237 91.5639 90.5251 91.4246 90.6137C91.2473 90.7277 91.0953 90.8417 90.956 90.9303L90.8927 90.981L97.6555 90.8163L126.822 90.1198C127.315 90.1071 127.721 89.6892 127.721 89.1953V79.0258C127.721 78.8485 127.657 78.6839 127.531 78.5699C127.404 78.4432 127.239 78.3799 127.062 78.3926C126.974 78.3926 126.885 78.3926 126.796 78.4052L126.568 78.4179C126.48 78.4179 126.391 78.4306 126.302 78.4306H126.29C126.188 78.4306 126.087 78.4432 125.986 78.4432C125.859 78.4432 125.732 78.4559 125.618 78.4686H125.568C125.454 78.4686 125.352 78.4812 125.238 78.4939L124.669 78.5319C124.567 78.5445 124.479 78.5445 124.377 78.5572C124.238 78.5699 124.111 78.5825 123.997 78.5825C123.858 78.5952 123.731 78.6079 123.605 78.6205C123.503 78.6332 123.402 78.6332 123.313 78.6459C123.225 78.6585 123.136 78.6585 123.048 78.6712C122.959 78.6839 122.87 78.6839 122.794 78.6965C122.68 78.7092 122.566 78.7218 122.44 78.7345H122.414C121.996 78.7852 121.578 78.8358 121.161 78.8991C120.933 78.9245 120.705 78.9625 120.489 79.0005H120.477C120.35 79.0258 120.223 79.0385 120.097 79.0638C119.843 79.1018 119.59 79.1524 119.337 79.1904L119.21 79.2158C119.122 79.2284 119.033 79.2411 118.957 79.2664C118.818 79.2917 118.691 79.3171 118.552 79.3424C118.438 79.3677 118.311 79.3931 118.197 79.4057C118.083 79.431 117.956 79.4564 117.842 79.4817H117.817C117.691 79.507 117.564 79.5324 117.45 79.5577C117.323 79.583 117.197 79.6083 117.07 79.6337C116.943 79.659 116.817 79.6843 116.703 79.7097C116.576 79.735 116.449 79.7603 116.335 79.7983C116.247 79.8236 116.145 79.8363 116.057 79.8616L115.968 79.887C115.842 79.9123 115.728 79.9376 115.601 79.9756C115.398 80.0263 115.196 80.0769 114.993 80.1276C114.955 80.1403 114.917 80.1529 114.879 80.1529L114.854 80.1656C114.385 80.2796 113.904 80.4062 113.448 80.5329C113.207 80.5962 112.979 80.6595 112.751 80.7228L112.384 80.8241C112.169 80.8875 111.941 80.9508 111.726 81.0268C111.586 81.0648 111.434 81.1154 111.295 81.1534C111.08 81.2167 110.877 81.2801 110.674 81.356C110.56 81.394 110.446 81.432 110.332 81.47H110.32C110.206 81.508 110.105 81.546 109.991 81.5713L109.585 81.7106C109.484 81.7486 109.37 81.7866 109.269 81.8246L108.99 81.9259C107.698 82.3692 106.394 82.8758 105.127 83.395C104.937 83.471 104.748 83.547 104.558 83.6356C104.19 83.7876 103.874 83.9269 103.57 84.0662L103.266 84.2055C103.063 84.2942 102.861 84.3828 102.658 84.4715C102.557 84.5221 102.455 84.5601 102.367 84.6108C102.063 84.7501 101.771 84.8767 101.493 85.016L101.201 85.1554C100.277 85.5986 99.3651 86.0545 98.466 86.5231C98.39 86.5611 98.3267 86.5991 98.2507 86.6371L98.0987 86.7131C97.6301 86.8904 97.1995 87.131 96.769 87.359Z" fill="#1D2949"/>
</g>
<g id="Group_28">
<path id="Vector_96" d="M163.789 89.9045C163.548 89.9045 163.32 89.8158 163.143 89.6385C162.94 89.4485 162.826 89.1699 162.826 88.8786V82.0145C162.826 81.6219 162.889 81.128 163.206 80.9254C163.497 80.7481 163.979 80.8747 164.27 81.0267C164.612 81.1914 164.84 81.3053 164.966 81.3813C164.979 81.394 165.004 81.394 165.017 81.4067L165.156 81.4826C166.866 82.4198 169.298 83.8889 172.4 85.8519C172.527 85.9405 172.666 86.0165 172.793 86.1051C173.11 86.3078 173.414 86.4977 173.705 86.6877L174.794 87.3842C174.984 87.5109 175.161 87.6249 175.339 87.7388C175.364 87.7515 175.389 87.7768 175.415 87.7895L175.44 87.8022C175.807 88.0428 175.959 88.486 175.845 88.9166C175.731 89.3219 175.389 89.6005 174.984 89.6132H174.87L163.827 89.9045C163.801 89.9045 163.801 89.9045 163.789 89.9045ZM163.852 81.4953C163.763 81.4953 163.687 81.5333 163.637 81.5586C163.485 81.6473 163.396 81.8246 163.396 82.0145V88.8786C163.396 89.018 163.447 89.1319 163.535 89.2206C163.611 89.2966 163.7 89.3219 163.789 89.3219L174.946 89.0306C175.174 89.0306 175.25 88.8153 175.263 88.752C175.301 88.6 175.288 88.3847 175.098 88.2708L175.073 88.2581C175.047 88.2454 175.022 88.2201 174.997 88.2074C174.819 88.0935 174.642 87.9795 174.452 87.8528L173.363 87.1563C173.072 86.9663 172.768 86.7764 172.451 86.5737C172.324 86.4851 172.198 86.4091 172.059 86.3204C168.981 84.3575 166.55 82.9011 164.852 81.9639L164.713 81.8879C164.701 81.8752 164.688 81.8752 164.675 81.8626C164.549 81.7993 164.321 81.6726 163.991 81.5206C163.966 81.508 163.903 81.4953 163.852 81.4953Z" fill="#1D2949"/>
</g>
<path id="Vector_97" d="M96.4776 87.1564L97.6807 91.133L91.1079 91.285C90.7279 91.2976 90.5633 90.8037 90.8672 90.5758C92.3616 89.5246 95.1098 87.625 96.4776 87.1564Z" fill="#2C3A64"/>
<g id="Group_29">
<path id="Vector_98" d="M133.99 90.601C133.534 90.601 133.103 90.4237 132.774 90.1071C132.432 89.7778 132.242 89.3346 132.242 88.8533V79.4437C132.242 79.0004 132.42 78.5825 132.736 78.2659C133.053 77.9493 133.471 77.7847 133.914 77.7847C151.885 78.038 157.444 78.4432 160.978 79.773L161.18 79.849V89.9425L134.028 90.5884C134.015 90.601 134.003 90.601 133.99 90.601ZM133.889 78.4432C133.623 78.4432 133.369 78.5445 133.179 78.7345C132.989 78.9245 132.875 79.1777 132.875 79.4437V88.8533C132.875 89.1573 132.989 89.4359 133.205 89.6385C133.42 89.8538 133.699 89.9551 134.003 89.9551L160.534 89.3219V80.3049C157.102 79.0891 151.213 78.6838 133.901 78.4432C133.901 78.4432 133.901 78.4432 133.889 78.4432Z" fill="#1D2949"/>
</g>
<path id="Vector_99" d="M206.785 99.6688H199.098C197.958 99.6688 196.869 99.1495 196.172 98.2503L193.259 94.5523C192.981 94.1977 193.234 93.6912 193.677 93.6912H205.861L206.785 99.6688Z" fill="#A9453D"/>
<g id="Group_30">
<path id="Vector_100" d="M130.624 77.9682L130.148 119.161L130.465 119.165L130.94 77.9719L130.624 77.9682Z" fill="#1D2949"/>
</g>
<g id="Group_31">
<path id="Vector_101" d="M157.851 118.542L78.3854 120.131L78.3917 120.448L157.858 118.858L157.851 118.542Z" fill="#1D2949"/>
</g>
<path id="Vector_102" d="M125.897 98.8836C125.897 99.3142 123.959 99.6688 121.553 99.6688C119.147 99.6688 117.209 99.3142 117.209 98.8836C117.209 98.453 119.147 98.0984 121.553 98.0984C123.959 98.0984 125.897 98.4403 125.897 98.8836Z" fill="#2C3A64"/>
<path id="Vector_103" d="M166.334 98.8836C166.334 99.3142 164.396 99.6688 161.99 99.6688C159.597 99.6688 157.646 99.3142 157.646 98.8836C157.646 98.453 159.584 98.0984 161.99 98.0984C164.384 98.0984 166.334 98.4403 166.334 98.8836Z" fill="#2C3A64"/>
<g id="Group_32">
<path id="Vector_104" d="M154.759 118.729L154.443 118.716C154.67 114.625 155.874 111.168 158.052 108.458C159.787 106.292 162.142 104.582 165.03 103.405C169.437 101.606 173.794 101.556 174.693 101.568V89.3219H175.009V101.898L174.845 101.885C174.794 101.885 169.994 101.708 165.131 103.696C162.294 104.861 159.99 106.533 158.28 108.66C156.165 111.307 154.974 114.701 154.759 118.729Z" fill="#1D2949"/>
</g>
<g id="Group_33">
<path id="Vector_105" d="M88.0688 120.084C87.9421 109.458 88.5373 102.113 89.0566 97.8071C89.6138 93.1466 90.2217 90.9683 90.2217 90.943L90.5257 91.0316C90.5003 91.1203 88.1447 99.7954 88.3854 120.071L88.0688 120.084Z" fill="#1D2949"/>
</g>
<g id="Group_34">
<path id="Vector_106" d="M133.913 77.9493H127.619V78.266H133.913V77.9493Z" fill="#1D2949"/>
</g>
<path id="Vector_107" d="M43.9209 107.014H38.3106C37.7407 107.014 37.3861 106.406 37.6647 105.912L37.9433 105.418C38.2853 104.81 38.7032 104.266 39.1844 103.785L42.5785 104.342L41.2361 105.811L42.8444 106.14L43.9209 107.014Z" fill="#2C3A64"/>
<g id="Group_35">
<path id="Vector_108" d="M42.1092 97.9464C41.9826 97.9464 41.856 97.8831 41.7673 97.7691C41.628 97.5791 41.6787 97.3258 41.8686 97.1865C41.8939 97.1612 42.5525 96.7053 44.6674 95.4135C46.8837 94.0584 49.0113 93.7798 50.4044 93.6912C51.2656 93.6278 52.1141 92.3867 52.6207 91.6395C52.8107 91.3609 52.95 91.1456 53.0766 91.0063C53.2792 90.791 53.4819 90.5631 68.8438 90.2718C76.3537 90.1325 85.6114 90.0438 83.9777 90.0438H85.6874C85.9154 90.0438 85.928 90.5884 85.966 90.8163C86.4726 93.5898 83.4711 92.2094 83.2305 92.2094C71.7692 92.3361 55.1789 91.3103 53.6212 91.6395C53.5325 91.7535 53.4185 91.9182 53.2919 92.1081C52.6587 93.0326 51.7089 94.4384 50.4424 94.527C49.1253 94.6157 47.137 94.8816 45.0727 96.1354C42.9958 97.4018 42.3245 97.8704 42.3245 97.8831C42.2865 97.9211 42.1979 97.9464 42.1092 97.9464Z" fill="#662D91"/>
</g>
<path id="Vector_109" d="M102.342 92.83H97.238C96.3261 92.83 95.5663 92.0828 95.5663 91.1583V89.7652C95.5663 88.8534 96.3135 88.0935 97.238 88.0935H102.342C103.254 88.0935 104.013 88.8407 104.013 89.7652V91.1583C104.013 92.0828 103.266 92.83 102.342 92.83Z" fill="#662D91"/>
</g>
<g id="Group_36">
<g id="man 1">
<path id="Vector_110" d="M68.0447 73.3648C68.3487 74.2006 68.8933 75.1631 69.4505 75.4037C70.0964 75.6823 70.3623 76.0623 70.3623 76.0623L70.8816 75.7583L71.5021 75.4037C71.5021 75.4037 71.4894 75.3404 71.4514 75.2264C71.4261 75.1124 71.3755 74.9605 71.3121 74.7832C71.3121 74.7832 71.1222 74.5425 71.2362 74.2386C71.3501 73.9347 71.3248 73.4661 71.1348 73.1748C70.9322 72.8835 70.7422 72.1743 70.6283 72.1996C70.337 72.2503 70.7676 73.2254 70.6409 73.4027C70.527 73.5674 70.3876 73.5041 70.3623 73.4914C69.5518 73.1368 68.5766 71.2118 68.1334 71.4778C67.9814 71.5791 67.9181 73.0101 68.0447 73.3648Z" fill="#FFB27D"/>
<g id="Group_37">
<path id="Vector_111" d="M70.8434 74.5172L69.8303 75.2264C69.7543 75.277 69.653 75.2644 69.6023 75.1884L67.0061 71.4904C66.9554 71.4144 66.9681 71.3131 67.0441 71.2624L68.0573 70.5532C68.1332 70.5026 68.2345 70.5152 68.2852 70.5912L70.8814 74.2892C70.9321 74.3779 70.9194 74.4665 70.8434 74.5172Z" fill="#2B478B"/>
<path id="Vector_112" d="M69.9188 75.1758L69.3236 75.5937C69.2729 75.6317 69.1969 75.619 69.1589 75.5684L66.5121 71.807C66.4741 71.7564 66.4868 71.6804 66.5374 71.6424L67.1326 71.2245C67.1833 71.1865 67.2593 71.1992 67.2973 71.2498L69.9441 75.0111C69.9821 75.0618 69.9695 75.1378 69.9188 75.1758Z" fill="#233862"/>
</g>
<path id="Vector_113" d="M85.3952 69.2235C85.3952 69.2235 80.2408 78.2279 78.3665 79.8743L71.5024 74.7578C71.5024 74.7578 70.5019 75.0618 70.0713 76.0623C70.0713 76.0623 74.2379 84.5474 78.3411 84.9147C82.4444 85.2693 88.2067 74.7325 88.2067 74.7325L85.3952 69.2235Z" fill="#233862"/>
<g id="Group_38">
<path id="Vector_114" d="M97.072 130.43H100.048C100.428 130.228 100.757 129.759 100.859 129.063C101.011 128.1 102.074 127.581 102.315 126.796C102.543 126.011 101.353 124.909 101.353 124.909L101.15 124.655L100.947 124.39L98.9716 124.858C98.9716 124.858 98.9209 125.327 98.8956 125.935C98.8703 126.365 98.8576 126.872 98.883 127.302C98.9463 128.353 98.5917 129.481 97.6545 129.683C96.9707 129.81 97.0086 130.215 97.072 130.43Z" fill="#233862"/>
<path id="Vector_115" d="M79.7722 130.43H86.5856C86.9149 130.025 86.7883 128.556 86.7376 128.075C86.725 127.974 86.725 127.923 86.725 127.923C86.725 127.923 84.3947 126.061 84.0781 127.492C84.0654 127.543 84.0528 127.581 84.0401 127.619C83.6348 128.949 81.8365 129.557 80.7854 129.721C80.1142 129.823 79.8609 130.177 79.7722 130.43Z" fill="#233862"/>
<path id="Vector_116" d="M81.0637 92.374C81.0637 92.374 81.4183 96.7812 81.8362 102.088C82.4061 109.294 83.0774 118.133 83.1533 119.805C83.2673 122.718 83.7359 127.366 83.7359 127.366C83.7359 127.366 84.8377 128.468 87.054 128.012C87.054 128.012 89.0296 121.363 89.5869 114.334C89.5995 114.22 89.5995 114.106 89.6122 113.992C90.1314 106.837 90.9546 91.7661 90.9546 91.7661L81.0637 92.374Z" fill="#FFA25C"/>
<path id="Vector_117" d="M81.0637 92.374C81.0637 92.374 81.4183 96.7812 81.8362 102.088L89.5742 114.334C89.5869 114.22 89.5869 114.106 89.5995 113.992C90.1188 106.837 90.942 91.7661 90.942 91.7661L81.0637 92.374Z" fill="#EF8C48"/>
<path id="Vector_118" d="M82.6846 92.8933C82.6846 92.8933 89.0548 108.863 93.2467 116.373C97.4386 123.883 98.743 125.973 98.743 125.973C98.743 125.973 101.149 125.01 101.365 124.364C101.365 124.364 99.7562 109.876 96.9573 106.343C95.3743 104.342 93.5126 98.3516 93.424 96.262C93.3353 94.1724 92.8541 90.0184 92.8541 90.0184L82.6846 92.8933Z" fill="#FFA25C"/>
</g>
<path id="Vector_119" d="M84.2681 69.6161C86.763 70.4013 91.0689 68.2864 91.0689 68.2864C91.0689 68.2864 88.7766 66.564 88.8906 62.98L86.9656 64.525L85.6611 65.5762C85.6611 65.5762 85.6611 66.1967 85.8131 67.2859C85.8511 67.5772 85.9018 67.8938 85.9524 68.2357C84.8759 68.8309 84.2681 69.6161 84.2681 69.6161Z" fill="#FFB27D"/>
<path id="Vector_120" d="M85.6616 65.5762C85.6616 65.5762 85.6616 66.1967 85.8136 67.2859C87.2573 67.0326 88.9037 64.6897 88.9037 64.6897C88.1692 64.4744 87.5233 64.4364 86.966 64.5124L85.6616 65.5762Z" fill="#ED975D"/>
<path id="Vector_121" d="M84.8884 65.5129C84.8884 65.5129 89.0044 66.1968 89.3843 63.6259C89.7642 61.055 90.5621 59.4213 87.9532 58.8767C85.3444 58.3322 84.6858 59.2313 84.3439 60.0545C84.0146 60.8904 83.8373 65.2722 84.8884 65.5129Z" fill="#FFB27D"/>
<path id="Vector_122" d="M80.786 92.7413C80.862 92.8046 80.9506 92.8426 81.0519 92.8426C81.9891 92.8299 84.7119 93.3492 87.0168 93.1085C88.9672 92.9186 90.6769 92.3487 92.5259 91.5128C92.7665 91.3988 93.3364 91.1076 93.3237 90.829C93.311 90.525 93.2857 90.0944 93.2477 89.5498C93.1211 87.6375 92.8931 84.3574 93.1084 80.5708C93.1464 79.8616 93.1717 79.165 93.1717 78.4812C93.1971 73.3521 92.1712 68.8309 90.1323 67.3112C89.955 67.1845 88.8912 67.7038 87.9033 68.1977C86.9915 68.6409 86.0797 68.6916 85.2185 68.527L84.3573 69.2868C83.3062 70.262 82.1664 71.5791 81.6598 73.5927C81.2419 75.3024 80.9886 78.3799 80.8493 81.5713C80.786 83.015 80.7353 84.4714 80.7226 85.8645V85.9152C80.71 86.0545 80.71 86.2064 80.71 86.3331C80.6847 89.8665 80.7353 92.6906 80.786 92.7413Z" fill="#2B478B"/>
<path id="Vector_123" d="M93.2603 89.5499C93.1336 87.6375 92.9057 84.3575 93.121 80.5708C93.159 79.8616 93.1843 79.1651 93.1843 78.4812C92.3358 76.4169 91.6392 74.9225 91.6392 74.9225H89.4863C89.4863 74.9098 87.9159 85.6619 93.2603 89.5499Z" fill="#233862"/>
<path id="Vector_124" d="M97.2871 89.9171C97.2871 89.9171 97.7684 90.5629 97.781 90.8162C97.9077 92.5513 97.1225 92.7919 99.1741 93.7544C99.1741 93.7544 100.048 94.0836 100.061 93.4124C100.073 92.7286 99.4527 92.7159 99.5667 91.7661C99.6933 90.6643 99.6807 90.6516 98.9588 90.0817L98.4776 89.2965L97.2871 89.9171Z" fill="#FFB27D"/>
<path id="Vector_125" d="M98.5156 90.411C97.743 90.563 96.9072 90.4996 96.9072 90.4996C96.9072 90.4996 94.6149 83.4076 94.311 82.7617C94.0197 82.1158 87.4976 74.4539 87.4976 74.4539L90.2204 67.6531C90.2204 67.6531 97.2745 79.431 97.9963 81.09C99.1741 83.8255 99.592 89.9551 99.592 89.9551C99.592 89.9551 99.1235 90.2843 98.5156 90.411Z" fill="#2B478B"/>
<path id="Vector_126" d="M89.3969 63.3852C89.3969 63.3852 88.979 63.3092 89.0423 62.7393C89.1056 62.1568 89.1056 61.3969 88.637 61.5362C88.1684 61.6755 88.1431 62.0555 87.9405 61.8402C87.7505 61.6249 87.7378 60.6877 86.3321 60.6244C84.9264 60.5611 84.3565 61.055 83.6979 60.7637C83.0394 60.4724 83.014 59.4846 83.014 59.4846C83.014 59.4846 83.204 59.8392 83.4826 59.9532C83.4826 59.9532 82.3935 58.4588 83.6599 57.433C84.9264 56.4071 86.2055 57.0783 86.94 57.129C88.5484 57.2303 89.5869 57.319 90.1188 58.3828C90.6507 59.4339 90.4354 62.3721 89.3969 63.3852Z" fill="#2B478B"/>
<path id="Vector_127" d="M98.0469 90.677C98.0469 90.677 97.5784 91.1583 97.553 91.3609C97.4644 92.0068 97.2491 92.2854 97.3504 92.3487C97.5783 92.5007 97.8696 92.0194 98.0089 91.5888C98.1609 91.1709 98.0469 90.677 98.0469 90.677Z" fill="#FFB27D"/>
</g>
</g>
</g>
</svg>
