<svg width="28" height="28" viewBox="0 0 28 28" fill="none" xmlns="http://www.w3.org/2000/svg">
<g id="map 1" clip-path="url(#clip0_226_307)">
<path id="Vector" d="M24.2564 1.95893L20.7372 0.528256C19.4876 0.0202759 18.1255 -0.121753 16.798 0.117367C16.7884 0.119117 16.7788 0.120975 16.7692 0.122998L9.41081 1.65361L6.26283 0.345663C6.26026 0.344569 6.25769 0.343531 6.25507 0.342492C3.33333 -0.892743 -0.0376599 1.37562 0.00625341 4.54568V20.4749C0.00625341 22.9329 1.47798 25.1195 3.75567 26.0454L7.27481 27.4761C8.12989 27.8237 9.03763 27.9999 9.95101 27.9999C10.3724 27.9999 10.7949 27.9624 11.2139 27.8869C11.2238 27.8851 11.2336 27.8833 11.2434 27.8812L18.6015 26.3462L21.7492 27.654C21.7518 27.6551 21.7543 27.6561 21.757 27.6572C23.1587 28.227 24.7453 28.063 26.0007 27.2186C27.2562 26.3741 28.0058 24.9668 28.0058 23.454V7.52943C28.0058 5.07143 26.5341 2.88491 24.2564 1.95893ZM25.8183 23.454C25.8183 24.2495 25.4397 24.9603 24.7795 25.4044C24.1205 25.8478 23.3207 25.931 22.5846 25.6331L19.1288 24.1973C18.9254 24.1128 18.7012 24.0917 18.4857 24.1366L10.812 25.7374C9.8973 25.8995 8.95954 25.8004 8.09894 25.4505L4.57975 24.0199C3.13033 23.4306 2.19377 22.0392 2.19377 20.475V4.54568C2.19377 3.75025 2.57237 3.0394 3.23254 2.59533C3.89409 2.14983 4.69677 2.07029 5.4275 2.36659L8.88325 3.80241C9.08641 3.88681 9.31041 3.90808 9.52582 3.8632L17.1999 2.26693C18.1146 2.1049 19.0524 2.20395 19.9132 2.55389L23.4324 3.98451C24.8818 4.57378 25.8184 5.9652 25.8184 7.52943V23.454H25.8183ZM10.8889 12.5238C10.8889 13.2786 10.2768 13.8905 9.52172 13.8905C7.7082 13.8185 7.70869 11.2288 9.52172 11.1571C10.2768 11.1571 10.8889 11.769 10.8889 12.5238ZM19.8575 15.5852C19.8575 16.34 19.2454 16.9519 18.4903 16.9519C16.6768 16.8799 16.6773 14.2902 18.4903 14.2185C19.2454 14.2185 19.8575 14.8304 19.8575 15.5852ZM9.52172 9.24367C8.91765 9.24367 8.42799 8.75417 8.42799 8.1503V7.05693C8.48573 5.60625 10.5582 5.60734 10.6154 7.05693V8.1503C10.6154 8.75417 10.1258 9.24367 9.52172 9.24367ZM10.6154 22.5281V16.8973C10.5577 15.4466 8.48524 15.4477 8.42799 16.8973V22.5281C8.42799 23.132 8.91765 23.6215 9.52172 23.6215C10.1258 23.6215 10.6154 23.132 10.6154 22.5281ZM19.584 20.9974V19.9587C19.5263 18.508 17.4538 18.5091 17.3966 19.9587V20.9974C17.3966 21.6013 17.8862 22.0908 18.4903 22.0908C19.0944 22.0908 19.584 21.6013 19.584 20.9974ZM19.584 11.2117V5.52621C19.5263 4.07553 17.4538 4.07662 17.3966 5.52621V11.2117C17.3966 11.8156 17.8862 12.3051 18.4903 12.3051C19.0944 12.3051 19.584 11.8156 19.584 11.2117Z" fill="white"/>
</g>
<defs>
<clipPath id="clip0_226_307">
<rect width="28" height="28" fill="white"/>
</clipPath>
</defs>
</svg>
