<svg width="28" height="28" viewBox="0 0 28 28" fill="none" xmlns="http://www.w3.org/2000/svg">
<g id="house 1" clip-path="url(#clip0_226_305)">
<path id="Vector" d="M21.4375 27.9984H6.5625C2.94394 27.9984 0 25.0544 0 21.4359V12.2336C0 10.1997 0.965508 8.24903 2.58267 7.01555L10.0202 1.34287C12.3635 -0.444369 15.6365 -0.444369 17.9798 1.34287L20.3438 3.14428V1.74838C20.4015 0.297193 22.474 0.298287 22.5312 1.74838V5.35289C22.5312 5.76868 22.2955 6.14848 21.9229 6.33305C21.5502 6.51757 21.1052 6.4748 20.7745 6.22286L16.6535 3.08254C15.091 1.89079 12.9089 1.89079 11.3467 3.08226L3.90923 8.75494C2.83117 9.57717 2.1875 10.8776 2.1875 12.2336V21.4359C2.1875 23.8483 4.15013 25.8109 6.5625 25.8109H21.4375C23.8499 25.8109 25.8125 23.8483 25.8125 21.4359V12.2336C25.8125 10.861 25.1761 9.55612 24.1101 8.74302C23.6298 8.37667 23.5374 7.69034 23.9038 7.21008C24.2701 6.72976 24.9565 6.63739 25.4367 7.00374C27.0418 8.22787 28 10.1829 28 12.2336V21.4359C28 25.0544 25.0561 27.9984 21.4375 27.9984ZM11.8125 12.6312C11.0574 12.6312 10.4453 13.2433 10.4453 13.9984C10.5176 15.8124 13.1081 15.811 13.1797 13.9984C13.1797 13.2433 12.5676 12.6312 11.8125 12.6312ZM17.5547 13.9983C17.4824 15.8123 14.8919 15.8109 14.8203 13.9983C14.8926 12.1843 17.4831 12.1858 17.5547 13.9983ZM13.1797 18.3733C13.1074 20.1873 10.5169 20.1859 10.4453 18.3733C10.5176 16.5593 13.1081 16.5608 13.1797 18.3733ZM17.5547 18.3733C17.4824 20.1873 14.8919 20.1859 14.8203 18.3733C14.8926 16.5593 17.4831 16.5608 17.5547 18.3733Z" fill="#BDBEC1"/>
</g>
<defs>
<clipPath id="clip0_226_305">
<rect width="28" height="28" fill="white"/>
</clipPath>
</defs>
</svg>
