<svg width="16" height="16" viewBox="0 0 16 16" fill="none" xmlns="http://www.w3.org/2000/svg">
<g id="pointer 1" clip-path="url(#clip0_34_2746)">
<g id="Group">
<g id="Group_2">
<path id="Vector" d="M13.6628 0.319191C12.3741 0.319191 11.3256 1.36763 11.3256 2.65638C11.3256 3.1795 11.6537 3.96794 12.3291 5.06638C12.5669 5.45294 12.8028 5.8045 12.9809 6.06138H5.926C4.54325 6.06138 3.41828 7.18635 3.41828 8.5691C3.41828 9.95185 4.54325 11.0768 5.926 11.0768H9.13678C9.86044 11.0768 10.4492 11.6655 10.4492 12.3892C10.4492 13.1129 9.86044 13.7016 9.13678 13.7016H3.04716C2.8615 13.0513 2.26184 12.5742 1.55313 12.5742C0.696563 12.5742 0 13.2711 0 14.1276C0 14.9839 0.696563 15.6808 1.55313 15.6808C2.23031 15.6808 2.80781 15.2451 3.02 14.6392C3.02 14.6392 3.02 14.6392 3.02003 14.6391H9.13681C10.3774 14.6391 11.3867 13.6298 11.3867 12.3892C11.3867 11.1486 10.3774 10.1393 9.13681 10.1393H5.926C5.06019 10.1393 4.35578 9.43491 4.35578 8.5691C4.35578 7.70328 5.06016 6.99888 5.926 6.99888H13.6625H13.6627H13.6628L14.0394 6.49044C14.0591 6.46388 14.5241 5.8345 14.9963 5.06638C15.6716 3.96794 16 3.1795 16 2.65638C16 1.36763 14.9516 0.319191 13.6628 0.319191ZM1.55313 14.7433C1.21375 14.7433 0.9375 14.467 0.9375 14.1276C0.9375 13.7879 1.21375 13.5117 1.55313 13.5117C1.89281 13.5117 2.16906 13.7879 2.16906 14.1276C2.16906 14.467 1.89281 14.7433 1.55313 14.7433ZM13.6628 5.402C12.9922 4.42107 12.2631 3.16263 12.2631 2.65638C12.2631 1.8845 12.8909 1.25669 13.6628 1.25669C14.4344 1.25669 15.0625 1.8845 15.0625 2.65638C15.0625 3.16263 14.3331 4.42107 13.6628 5.402Z" fill="#662D91"/>
</g>
</g>
<g id="Group_3">
<g id="Group_4">
<path id="Vector_2" d="M13.6628 2.04826C13.401 2.04826 13.1888 2.26045 13.1888 2.52233C13.1888 2.7842 13.401 2.99639 13.6628 2.99639C13.9244 2.99639 14.1366 2.7842 14.1366 2.52233C14.1366 2.26045 13.9244 2.04826 13.6628 2.04826Z" fill="#656CEE"/>
</g>
</g>
</g>
<defs>
<clipPath id="clip0_34_2746">
<rect width="16" height="16" fill="white"/>
</clipPath>
</defs>
</svg>
