<svg width="18" height="18" viewBox="0 0 18 18" fill="none" xmlns="http://www.w3.org/2000/svg">
<g id="spot 1" clip-path="url(#clip0_34_2687)">
<g id="Group">
<path id="Vector" d="M3.91815 7.34694L3.91815 1.83673L14.0814 1.83673L14.0814 7.34694C14.0814 7.85412 14.4926 8.26531 14.9998 8.26531C15.507 8.26531 15.9182 7.85412 15.9182 7.34694L15.9182 0.918367C15.9182 0.411184 15.507 -1.79734e-08 14.9998 -4.01431e-08L2.99979 -5.6468e-07C2.4926 -5.86849e-07 2.08142 0.411183 2.08142 0.918367L2.08142 7.34694C2.08142 7.85412 2.4926 8.2653 2.99979 8.2653C3.50697 8.2653 3.91815 7.85412 3.91815 7.34694Z" fill="#662D91"/>
<path id="Vector_2" d="M15.9182 17.0817L15.9182 10.6531C15.9182 10.1459 15.507 9.73471 14.9998 9.73471C14.4926 9.73471 14.0814 10.1459 14.0814 10.6531L14.0814 16.1633L3.91815 16.1633L3.91815 10.6531C3.91815 10.1459 3.50696 9.73471 2.99978 9.73471C2.49259 9.73471 2.08141 10.1459 2.08141 10.6531L2.08141 17.0817C2.08141 17.5888 2.49259 18 2.99978 18L14.9998 18C15.507 18 15.9182 17.5888 15.9182 17.0817Z" fill="#662D91"/>
<path id="Vector_3" d="M9.00016 11C10.103 11 11.0002 10.1028 11.0002 8.99998C11.0002 7.89717 10.103 7 9.00016 7C7.89735 7 7.00018 7.89717 7.00018 8.99998C7.00018 10.1028 7.89735 11 9.00016 11Z" fill="#662D91"/>
</g>
</g>
<defs>
<clipPath id="clip0_34_2687">
<rect width="18" height="18" fill="white" transform="translate(18) rotate(90)"/>
</clipPath>
</defs>
</svg>
