<svg width="28" height="28" viewBox="0 0 28 28" fill="none" xmlns="http://www.w3.org/2000/svg">
<g id="wallet-passes-app 1" clip-path="url(#clip0_226_309)">
<path id="Vector" d="M26.905 7.71395C27.509 7.71395 27.9986 7.22435 27.9986 6.62036V5.47209C27.9986 2.45478 25.5438 0 22.5265 0C22.5265 0 5.38404 0.00256993 5.34178 0.00754576C3.89884 0.0579601 2.51277 0.67715 1.51367 1.72404C0.489582 2.79707 -0.0443076 4.19271 0.00594276 5.66112C0.00386495 5.68895 0.00277136 21.4343 0.00277136 21.4343C0.00277136 25.0546 2.94813 28 6.56845 28H22.5265C25.5438 28 27.9986 25.5452 27.9986 22.5279V14.225C27.9986 11.2076 25.5438 8.75286 22.5265 8.75286H5.47066C3.71485 8.75286 2.27536 7.38051 2.1935 5.62859C2.15189 4.73775 2.47237 3.88738 3.09582 3.23407C3.7283 2.57135 4.61656 2.19133 5.53277 2.19133C5.56509 2.19133 22.5264 2.18718 22.5264 2.18718C24.3377 2.18718 25.8113 3.66078 25.8113 5.47209V6.62036C25.8114 7.22435 26.301 7.71395 26.905 7.71395ZM5.47066 10.94H22.5265C24.3378 10.94 25.8114 12.4136 25.8114 14.225V22.5279C25.8114 24.3392 24.3378 25.8128 22.5265 25.8128H6.56845C4.15414 25.8128 2.18995 23.8486 2.18995 21.4343V9.85087C3.10462 10.536 4.24113 10.94 5.47066 10.94ZM23.6243 18.3764C23.6243 19.1314 23.0122 19.7434 22.2573 19.7434C20.444 19.6714 20.4445 17.0812 22.2573 17.0094C23.0122 17.0094 23.6243 17.6215 23.6243 18.3764ZM23.6243 5.47209C23.6243 4.86811 23.1347 4.37851 22.5307 4.37851H5.47071C4.01974 4.43625 4.02083 6.50843 5.47071 6.56568H22.5307C23.1346 6.56568 23.6243 6.07608 23.6243 5.47209Z" fill="white" fill-opacity="0.7"/>
</g>
<defs>
<clipPath id="clip0_226_309">
<rect width="28" height="28" fill="white"/>
</clipPath>
</defs>
</svg>
